<?xml version="1.0" standalone="no"?>
<!DOCTYPE svg PUBLIC "-//W3C//DTD SVG 20010904//EN"
 "http://www.w3.org/TR/2001/REC-SVG-20010904/DTD/svg10.dtd">
<svg version="1.0" xmlns="http://www.w3.org/2000/svg"
 width="750.000000pt" height="750.000000pt" viewBox="0 0 750.000000 750.000000"
 preserveAspectRatio="xMidYMid meet">
<metadata>
Created by potrace 1.14, written by Peter Selinger 2001-2017
</metadata>
<g transform="translate(0.000000,750.000000) scale(0.100000,-0.100000)"
fill="#000000" stroke="none">
<path d="M3694 7485 c-17 -7 -34 -20 -37 -29 -4 -9 -5 -97 -4 -196 2 -209 3
-211 87 -213 44 -1 55 2 71 22 17 21 19 41 19 201 0 155 -2 180 -17 198 -23
26 -79 35 -119 17z"/>
<path d="M2182 7094 c-52 -21 -56 -95 -10 -176 60 -104 70 -121 90 -148 46
-63 135 -74 162 -21 24 46 14 91 -43 191 -30 52 -62 107 -72 121 -25 35 -85
51 -127 33z"/>
<path d="M5240 7097 c-47 -12 -51 -16 -116 -115 -74 -112 -86 -143 -79 -195 7
-50 23 -68 62 -73 75 -9 127 40 213 201 36 67 45 121 26 150 -20 31 -63 44
-106 32z"/>
<path d="M3508 6595 c-1 -1 -34 -5 -73 -8 -66 -6 -159 -19 -215 -31 -124 -27
-149 -33 -152 -36 -2 -1 -10 -3 -18 -5 -102 -20 -349 -114 -499 -189 -276
-138 -539 -339 -691 -527 -19 -23 -42 -50 -51 -58 -15 -14 -159 -182 -177
-206 -74 -97 -182 -276 -239 -395 -37 -76 -113 -266 -119 -295 -2 -11 -8 -31
-14 -45 -25 -64 -85 -347 -95 -450 -3 -25 -8 -79 -12 -120 -14 -138 -8 -412
11 -520 2 -14 10 -59 16 -100 6 -41 16 -91 20 -110 5 -19 12 -50 15 -69 3 -19
8 -38 11 -43 3 -5 7 -18 10 -31 6 -32 57 -190 89 -272 37 -98 119 -263 177
-359 27 -45 55 -90 61 -101 7 -11 14 -22 17 -25 3 -3 17 -21 30 -40 60 -88
158 -197 335 -375 178 -178 325 -348 325 -374 0 -6 5 -11 10 -11 6 0 10 -5 10
-12 0 -6 6 -19 14 -27 18 -21 94 -168 140 -269 46 -102 104 -267 132 -377 11
-42 54 -259 59 -295 6 -48 16 -136 18 -159 0 -13 16 -12 92 3 11 2 39 7 63 11
23 4 42 12 43 18 4 51 -5 239 -16 324 -10 79 -104 387 -149 488 -8 17 -28 59
-45 95 -17 36 -31 69 -31 74 0 5 -6 17 -14 25 -7 9 -28 44 -45 78 -18 34 -39
67 -47 74 -8 6 -14 16 -14 22 0 17 -135 200 -217 292 -44 50 -127 137 -184
195 -108 109 -187 196 -259 288 -56 72 -180 263 -180 278 0 7 -3 14 -7 16 -26
11 -170 367 -189 467 -3 14 -7 28 -9 31 -5 8 -32 136 -41 194 -3 21 -7 48 -10
60 -17 91 -23 424 -10 596 10 131 24 248 32 261 2 3 6 21 9 40 20 116 106 353
183 499 54 104 179 301 222 350 12 14 30 36 38 49 41 61 201 226 307 316 39
33 72 63 73 68 2 4 10 7 17 7 7 0 15 4 17 8 12 31 295 207 455 283 102 49 274
116 318 125 11 2 43 10 70 18 153 45 310 66 490 65 44 0 89 0 100 1 176 4 360
-6 459 -26 12 -2 32 -6 46 -9 150 -29 372 -94 470 -138 285 -127 425 -211 585
-351 70 -62 188 -182 235 -238 14 -17 34 -41 46 -52 16 -17 84 -106 162 -211
115 -157 262 -463 314 -655 5 -19 14 -51 19 -70 5 -19 12 -46 15 -60 2 -14 8
-38 11 -55 4 -16 8 -34 8 -40 2 -19 17 -120 21 -140 19 -93 18 -470 -1 -595
-3 -19 -8 -57 -11 -85 -2 -27 -9 -66 -14 -85 -5 -19 -11 -51 -14 -70 -4 -19
-15 -66 -26 -105 -11 -38 -22 -77 -25 -85 -2 -8 -13 -40 -24 -70 -11 -30 -27
-75 -36 -100 -21 -58 -96 -206 -149 -294 -22 -37 -45 -77 -51 -87 -5 -10 -13
-19 -17 -19 -5 0 -8 -5 -8 -11 0 -19 -108 -153 -209 -258 -94 -98 -198 -214
-261 -291 -34 -41 -71 -85 -81 -98 -10 -12 -50 -66 -89 -120 -38 -53 -73 -102
-77 -108 -5 -5 -14 -21 -22 -35 -83 -142 -114 -197 -139 -251 -33 -70 -81
-176 -82 -183 0 -3 -2 -10 -5 -17 -14 -42 -56 -180 -65 -216 -30 -117 -58
-366 -51 -453 1 -12 15 -19 49 -24 26 -5 52 -10 57 -11 6 -2 26 -6 46 -10 42
-7 44 -5 54 86 3 30 8 62 10 70 2 8 6 38 10 65 6 54 12 86 20 125 10 44 15 64
19 86 11 53 58 203 94 299 23 62 114 258 123 265 3 3 14 21 24 40 22 43 133
211 149 225 6 6 24 28 40 50 17 22 94 105 172 185 78 80 152 157 165 171 71
79 89 100 145 169 238 292 426 708 488 1080 9 51 16 101 21 135 2 17 4 30 5
30 6 0 14 201 14 330 -1 123 -15 313 -29 375 -1 3 -5 25 -9 50 -10 56 -45 210
-53 230 -3 8 -8 24 -10 35 -6 34 -70 210 -104 287 -49 113 -107 224 -160 311
-27 43 -49 83 -49 88 0 5 -4 9 -8 9 -4 0 -16 15 -27 33 -10 17 -23 37 -27 42
-4 6 -38 48 -75 95 -165 209 -381 408 -573 530 -30 19 -57 37 -60 40 -3 4 -12
10 -20 13 -8 4 -42 23 -75 43 -232 136 -548 253 -815 300 -14 3 -50 9 -80 15
-30 5 -77 12 -105 14 -27 3 -61 8 -75 11 -26 6 -486 15 -492 9z"/>
<path d="M1049 5990 c-22 -16 -25 -26 -23 -65 3 -50 11 -61 79 -97 22 -11 42
-23 45 -27 6 -7 23 -17 99 -56 64 -34 137 -38 158 -9 21 28 12 109 -16 138
-12 13 -69 47 -126 75 -118 60 -175 70 -216 41z"/>
<path d="M6315 5994 c-22 -8 -44 -16 -50 -18 -5 -1 -26 -11 -45 -21 -19 -11
-53 -28 -75 -39 -63 -32 -77 -51 -89 -118 -6 -37 20 -67 69 -78 36 -9 48 -6
110 26 188 94 235 131 235 185 0 68 -69 96 -155 63z"/>
<path d="M3338 5725 c-2 -2 -23 -5 -48 -8 -62 -7 -91 -14 -136 -33 -64 -26
-169 -78 -172 -86 -2 -5 -8 -8 -14 -8 -16 0 -97 -66 -151 -124 -26 -28 -55
-72 -64 -98 -12 -32 -22 -45 -33 -43 -21 4 -146 -54 -217 -102 -130 -86 -262
-254 -320 -408 -38 -100 -52 -197 -48 -325 4 -131 5 -147 25 -220 15 -57 32
-106 68 -199 35 -87 33 -101 -30 -212 -38 -68 -41 -81 -44 -160 -5 -139 47
-282 133 -365 68 -67 125 -96 197 -103 5 -1 5 -16 1 -33 -13 -55 -13 -209 0
-263 47 -198 200 -332 412 -359 44 -6 79 -31 99 -74 31 -66 141 -155 235 -190
68 -25 197 -37 259 -23 80 17 87 19 128 40 48 24 59 26 43 8 -12 -15 -9 -1632
4 -1645 4 -4 49 -7 100 -7 75 0 95 3 97 15 2 8 3 380 3 825 l0 811 58 -24
c106 -43 271 -36 382 17 74 34 128 81 175 150 44 63 85 90 151 97 115 13 292
132 337 227 43 91 54 142 58 251 2 77 -1 118 -11 142 -13 31 -12 34 3 35 98 4
213 94 275 214 44 88 63 242 39 334 -7 31 -16 66 -19 79 -3 12 -9 22 -13 22
-4 0 -10 8 -13 18 -3 9 -15 42 -26 72 -19 49 -20 58 -7 85 86 185 111 294 111
485 -1 143 -14 196 -77 330 -68 141 -137 233 -239 316 -13 11 -69 42 -124 70
-96 48 -121 68 -230 184 -136 145 -325 255 -470 275 -126 18 -239 2 -345 -48
-36 -16 -68 -29 -72 -29 -5 1 -8 -3 -8 -9 0 -19 -81 -3 -152 29 -75 35 -120
50 -171 57 -44 7 -135 13 -139 10z m102 -230 c19 -4 44 -8 55 -10 11 -1 50
-13 88 -24 l67 -22 0 -1428 0 -1429 -36 -21 c-69 -41 -138 -59 -226 -59 -46 0
-92 4 -103 8 -26 10 -90 73 -107 105 -7 13 -25 48 -40 77 -33 64 -70 88 -146
94 -158 12 -167 15 -228 67 -51 45 -73 113 -72 225 1 61 6 87 26 125 20 38 24
58 20 98 -7 67 -26 83 -116 97 -108 18 -161 52 -218 140 -23 36 -28 56 -30
112 -3 107 10 147 65 205 91 94 101 156 37 232 -55 64 -81 125 -110 256 -15
70 -18 234 -5 302 16 82 17 90 20 93 1 1 2 5 3 10 2 8 38 81 63 127 9 17 46
60 83 96 52 51 92 79 174 120 112 56 140 77 196 149 109 140 247 236 365 254
21 4 40 8 42 10 5 5 93 -1 133 -9z m808 0 c86 -17 168 -74 309 -213 85 -85
155 -145 183 -158 25 -12 70 -34 100 -48 110 -52 208 -171 270 -327 28 -70 35
-121 35 -269 0 -162 -20 -236 -95 -355 -85 -134 -87 -155 -21 -221 65 -67 94
-134 95 -218 0 -168 -56 -236 -234 -281 -91 -23 -129 -47 -129 -80 -1 -11 -1
-35 -1 -54 -1 -21 8 -47 23 -67 21 -30 23 -44 22 -126 -2 -142 -10 -170 -58
-215 -61 -56 -112 -73 -240 -79 -42 -1 -82 -6 -88 -9 -5 -4 -22 -32 -36 -63
-52 -114 -132 -197 -200 -208 -116 -18 -211 -1 -295 54 l-38 25 0 1428 0 1428
81 26 c130 41 221 50 317 30z"/>
<path d="M2790 488 c-19 -5 -40 -10 -45 -11 -32 -8 -88 -52 -118 -92 -30 -43
-33 -53 -32 -111 4 -119 65 -204 178 -245 50 -18 94 -19 972 -17 850 1 925 3
985 19 77 22 129 71 155 149 41 123 12 225 -75 270 -87 44 -78 44 -1055 45
-511 1 -946 -2 -965 -7z"/>
</g>
</svg>
